# xmcd
#
# Track frame offsets: 
#        150
#        39377
#        61902
#        71905
#        95192
#        118465
#        128084
#        152299
#        160067
#        200367
#        214449
#        231702
#        254842
#        262079
#        292244
#
# Disc length: 4159 seconds
#
# Revision: 0
# Processed by: cddbd v1.5.2PL0 Copyright (c) Steve Scherf et al.
# Submitted via: ExactAudioCopy v1.0b3
#
DISCID=f9103d0f
DTITLE=Kalle Sändare - Boxen e' klar - CD 17 - Va' bra de' hörs!
DYEAR=2014
DGENRE=Comedy
TTITLE0=Sparvar i mun
TTITLE1=Röster i radio (intervju inspelad på restaurang Gröne Jägaren)
TTITLE2=Parfymbaren del 1
TTITLE3=Sökes: man med eget kapital för litet men lönande projekt i Af
TTITLE3=rika
TTITLE4=Är det något du vill fråga mig om, ska jag gärna svara i den m
TTITLE4=ån jag kan
TTITLE5=Swingtrappa
TTITLE6=Familjebur (inspelad på restaurang Gröne Jägaren)
TTITLE7=Listan, intervju från tv (medverkande Rune Gustafsson, Annika 
TTITLE7=Jankell, Kalle Sändare)
TTITLE8=Aftonbladet, intervju
TTITLE9=Parfymbaren del 2
TTITLE10=Gult badkar i Norge
TTITLE11=Ridlektionen
TTITLE12=Att gå på bio i Oslo
TTITLE13=Salong hårsvallet
TTITLE14=Kinesiskt julbord i Norge
EXTD=
EXTT0=
EXTT1=
EXTT2=
EXTT3=
EXTT4=
EXTT5=
EXTT6=
EXTT7=
EXTT8=
EXTT9=
EXTT10=
EXTT11=
EXTT12=
EXTT13=
EXTT14=
PLAYORDER=
